<svg id="Capa_1" enable-background="new 0 0 512 512" height="512" viewBox="0 0 512 512" width="512" xmlns="http://www.w3.org/2000/svg"><g><path d="m196 271c24.813 0 45 20.187 45 45v151c0 24.813-20.187 45-45 45s-45-20.187-45-45v-151c0-24.813 20.187-45 45-45z" fill="#ff6378"/><path d="m467 361h-151c-24.813 0-45-20.187-45-45s20.187-45 45-45h151c24.813 0 45 20.187 45 45s-20.187 45-45 45z" fill="#ffe278"/><path d="m45 151h151c24.813 0 45 20.187 45 45s-20.187 45-45 45h-151c-24.813 0-45-20.187-45-45s20.187-45 45-45z" fill="#8bb9ff"/><path d="m316 241c-24.813 0-45-20.187-45-45v-151c0-24.813 20.187-45 45-45s45 20.187 45 45v151c0 24.813-20.187 45-45 45z" fill="#00ff93"/><path d="m316 0v241c24.813 0 45-20.187 45-45v-151c0-24.813-20.187-45-45-45z" fill="#00a763"/><path d="m196 271v241c24.813 0 45-20.187 45-45v-151c0-24.813-20.187-45-45-45z" fill="#d0004f"/><path d="m512 316h-241c0 24.813 20.187 45 45 45h151c24.813 0 45-20.187 45-45z" fill="#ffb454"/><path d="m241 196h-241c0 24.813 20.187 45 45 45h151c24.813 0 45-20.187 45-45z" fill="#4793ff"/><path d="m452 241h-45c-8.284 0-15-6.716-15-15v-45c0-33.084 26.916-60 60-60s60 26.916 60 60-26.916 60-60 60z" fill="#00a763"/><path d="m60 391c-33.084 0-60-26.916-60-60s26.916-60 60-60h45c8.284 0 15 6.716 15 15v45c0 33.084-26.916 60-60 60z" fill="#ff6378"/><path d="m226 120h-45c-33.084 0-60-26.916-60-60s26.916-60 60-60 60 26.916 60 60v45c0 8.284-6.716 15-15 15z" fill="#8bb9ff"/><path d="m331 512c-33.084 0-60-26.916-60-60v-45c0-8.284 6.716-15 15-15h45c33.084 0 60 26.916 60 60s-26.916 60-60 60z" fill="#ffb454"/></g></svg>