<svg id="Icons" xmlns="http://www.w3.org/2000/svg" viewBox="0 0 48 48"><defs><style>.cls-1{fill:#debb7e;}.cls-2{fill:#b89558;}.cls-3{fill:none;}.cls-11,.cls-3{stroke:#45413c;stroke-linecap:round;stroke-linejoin:round;}.cls-4{fill:#6dd627;}.cls-5{fill:#9ceb60;}.cls-6{fill:#ff6242;}.cls-7{fill:#ff866e;}.cls-8{fill:#45413c;opacity:0.15;}.cls-9{fill:#fffacf;}.cls-10{fill:#fff48c;}.cls-11{fill:#e0e0e0;}.cls-12{fill:#bf8256;}.cls-13{fill:#915e3a;}.cls-14{fill:#00b8f0;}.cls-15{fill:#4acfff;}</style></defs><title>586-house-with-garden</title><g id="_Group_" data-name="&lt;Group&gt;"><rect id="_Rectangle_" data-name="&lt;Rectangle&gt;" class="cls-1" x="13.55" y="19.18" width="4.29" height="22.32"/><path id="_Path_" data-name="&lt;Path&gt;" class="cls-2" d="M13.55,34.76a3,3,0,0,0,1.29.3,3,3,0,0,0,2.76-1.82l.24.06V19.18H13.55Z"/><rect id="_Rectangle_2" data-name="&lt;Rectangle&gt;" class="cls-3" x="13.55" y="19.18" width="4.29" height="22.32"/><path id="_Path_2" data-name="&lt;Path&gt;" class="cls-4" d="M15.16,9.4A10.43,10.43,0,0,0,4.75,19.12,6.61,6.61,0,1,0,12,29.78a10.26,10.26,0,0,0,3.2.51,10.45,10.45,0,0,0,0-20.89Z"/><path id="_Path_3" data-name="&lt;Path&gt;" class="cls-5" d="M4.75,21.9a10.43,10.43,0,0,1,20.75-.67,10.57,10.57,0,0,0,.1-1.39,10.44,10.44,0,0,0-20.85-.72A6.57,6.57,0,0,0,.66,26.71,6.59,6.59,0,0,1,4.75,21.9Z"/><path id="_Path_4" data-name="&lt;Path&gt;" class="cls-3" d="M15.16,9.4A10.43,10.43,0,0,0,4.75,19.12,6.61,6.61,0,1,0,12,29.78a10.26,10.26,0,0,0,3.2.51,10.45,10.45,0,0,0,0-20.89Z"/><path class="cls-6" d="M40.7,24.52,29,17.7a1.73,1.73,0,0,0-1.73,0L15.59,24.52a1.49,1.49,0,1,0,1.51,2.57l11-6.44L39.2,27.09a1.49,1.49,0,0,0,1.5-2.57Z"/><path id="_Path_5" data-name="&lt;Path&gt;" class="cls-7" d="M15.12,26.64a1.69,1.69,0,0,1,.47-.45l11.69-6.81a1.68,1.68,0,0,1,1.73,0L40.7,26.19a1.56,1.56,0,0,1,.47.45.76.76,0,0,0,.12-.19,1.48,1.48,0,0,0-.59-1.93L29,17.7a1.73,1.73,0,0,0-1.73,0L15.59,24.52A1.5,1.5,0,0,0,15,26.45,1.22,1.22,0,0,0,15.12,26.64Z"/><path class="cls-3" d="M40.7,24.52,29,17.7a1.73,1.73,0,0,0-1.73,0L15.59,24.52a1.49,1.49,0,1,0,1.51,2.57l11-6.44L39.2,27.09a1.49,1.49,0,0,0,1.5-2.57Z"/><ellipse id="_Ellipse_" data-name="&lt;Ellipse&gt;" class="cls-8" cx="26.43" cy="42.5" rx="21.03" ry="1.5"/><polygon id="_Path_6" data-name="&lt;Path&gt;" class="cls-9" points="38.45 41.5 17.84 41.5 17.84 26.66 28.15 20.65 38.45 26.66 38.45 41.5"/><polygon id="_Path_7" data-name="&lt;Path&gt;" class="cls-10" points="28.15 20.65 17.84 26.66 17.84 29.06 28.15 23.05 38.45 29.06 38.45 26.66 28.15 20.65"/><polygon id="_Path_8" data-name="&lt;Path&gt;" class="cls-3" points="38.45 41.5 17.84 41.5 17.84 26.66 28.15 20.65 38.45 26.66 38.45 41.5"/><path id="_Rectangle_3" data-name="&lt;Rectangle&gt;" class="cls-11" d="M20.42,39.35h8.16a.86.86,0,0,1,.86.86V41.5a0,0,0,0,1,0,0H19.56a0,0,0,0,1,0,0V40.21A.86.86,0,0,1,20.42,39.35Z"/><path id="_Rectangle_4" data-name="&lt;Rectangle&gt;" class="cls-12" d="M21.71,29.05h5.58a.86.86,0,0,1,.86.86v9.44a0,0,0,0,1,0,0h-7.3a0,0,0,0,1,0,0V29.91A.86.86,0,0,1,21.71,29.05Z"/><path id="_Path_9" data-name="&lt;Path&gt;" class="cls-13" d="M27.29,29.05H21.71a.86.86,0,0,0-.86.86v1.72a.85.85,0,0,1,.86-.86h5.58a.86.86,0,0,1,.86.86V29.91A.87.87,0,0,0,27.29,29.05Z"/><path id="_Rectangle_5" data-name="&lt;Rectangle&gt;" class="cls-3" d="M21.71,29.05h5.58a.86.86,0,0,1,.86.86v9.44a0,0,0,0,1,0,0h-7.3a0,0,0,0,1,0,0V29.91A.86.86,0,0,1,21.71,29.05Z"/><rect id="_Rectangle_6" data-name="&lt;Rectangle&gt;" class="cls-14" x="30.72" y="29.05" width="5.15" height="5.15" rx="0.86" ry="0.86"/><path id="_Path_10" data-name="&lt;Path&gt;" class="cls-15" d="M35,29.05H31.58a.87.87,0,0,0-.86.86v3.43a.86.86,0,0,0,.86.86h.61l3-5.11A.47.47,0,0,0,35,29.05Z"/><rect id="_Rectangle_7" data-name="&lt;Rectangle&gt;" class="cls-14" x="22.57" y="30.77" width="3.86" height="3.86" rx="0.86" ry="0.86"/><path id="_Path_11" data-name="&lt;Path&gt;" class="cls-15" d="M25.57,30.77H23.42a.85.85,0,0,0-.85.86v2.14a.85.85,0,0,0,.85.86h.21l2.23-3.8A.72.72,0,0,0,25.57,30.77Z"/><rect id="_Rectangle_8" data-name="&lt;Rectangle&gt;" class="cls-3" x="30.72" y="29.05" width="5.15" height="5.15" rx="0.86" ry="0.86"/><rect id="_Rectangle_9" data-name="&lt;Rectangle&gt;" class="cls-3" x="22.57" y="30.77" width="3.86" height="3.86" rx="0.86" ry="0.86"/><path id="_Path_12" data-name="&lt;Path&gt;" class="cls-4" d="M46.63,41.5a2.14,2.14,0,0,0-1.28-3.86,2.11,2.11,0,0,0-1.36.5,3.86,3.86,0,1,0-6.65,3.36Z"/><path id="_Path_13" data-name="&lt;Path&gt;" class="cls-5" d="M40.2,36.8A3.87,3.87,0,0,1,44,39.88a2.11,2.11,0,0,1,1.36-.51,2.15,2.15,0,0,1,2,1.27,2.21,2.21,0,0,0,.19-.86,2.14,2.14,0,0,0-2.15-2.14,2.11,2.11,0,0,0-1.36.5,3.87,3.87,0,0,0-7.65.78,3.43,3.43,0,0,0,.11.86A3.85,3.85,0,0,1,40.2,36.8Z"/><path id="_Path_14" data-name="&lt;Path&gt;" class="cls-3" d="M46.63,41.5a2.14,2.14,0,0,0-1.28-3.86,2.11,2.11,0,0,0-1.36.5,3.86,3.86,0,1,0-6.65,3.36Z"/></g></svg>